# xmcd
#
# Track frame offsets: 
#        150
#        18750
#        42450
#        69075
#        93675
#        117000
#        137925
#        166050
#        186825
#        196425
#        220650
#        239400
#        256950
#
# Disc length: 4429 seconds
#
# Revision: 0
# Processed by: cddbd v1.5.2PL0 Copyright (c) Steve Scherf et al.
# Submitted via: ExactAudioCopyFreeDBPlugin 1.0
#
DISCID=b1114b0d
DTITLE=Various Artist - Lost In Bass: The Bass Project Volume 1 
DYEAR=1998
DGENRE=Funk
TTITLE0=Andre Foxxe, featering Flea - Hangin' Around
TTITLE1=Chuck Rainey - Me and My Bass
TTITLE2=louis Johnson - The Evolution 
TTITLE3=Tony "T" Green - Down By The River
TTITLE4=Paul Jackson - Shall We Go Again
TTITLE5=Nathan Watts - Song For The World
TTITLE6=Jerry Jemmott - Memphis Soul Stew
TTITLE7=Gorge Porter Jr. - Funksomethingness
TTITLE8=Andrew Levy - Eyes On The Prize
TTITLE9=Rodney "Skeet" Curtis - Pretty Girl
TTITLE10=Willie Weeks - Walk Don't Call Me
TTITLE11=Francis "Rocco" Prestia - Ridin' The Empty Lane
TTITLE12=Bill Laswell, Jah Wobble, Gabe katz,Robbie Shakespeare, Boots
TTITLE12=y Collins - The Final Frontier
EXTD=
EXTT0=
EXTT1=
EXTT2=
EXTT3=
EXTT4=
EXTT5=
EXTT6=
EXTT7=
EXTT8=
EXTT9=
EXTT10=
EXTT11=
EXTT12=
PLAYORDER=
